<?xml version="1.0" encoding="UTF-8"?>
<svg id="Layer_1" data-name="Layer 1" xmlns="http://www.w3.org/2000/svg" xmlns:xlink="http://www.w3.org/1999/xlink" viewBox="0 0 100 100">
  <defs>
    <style>
      .cls-1 {
        fill: url(#linear-gradient-2);
      }

      .cls-2 {
        fill: url(#linear-gradient-51);
      }

      .cls-3 {
        fill: url(#linear-gradient-17);
      }

      .cls-4 {
        fill: url(#linear-gradient-43);
      }

      .cls-5 {
        fill: url(#linear-gradient-15);
      }

      .cls-6 {
        fill: url(#linear-gradient-18);
      }

      .cls-7 {
        fill: url(#linear-gradient-40);
      }

      .cls-8 {
        fill: url(#linear-gradient-52);
      }

      .cls-9 {
        fill: url(#linear-gradient-28);
      }

      .cls-10 {
        fill: url(#linear-gradient-14);
      }

      .cls-11 {
        fill: url(#linear-gradient-36);
      }

      .cls-12 {
        fill: url(#linear-gradient-20);
      }

      .cls-13 {
        fill: url(#linear-gradient-6);
      }

      .cls-14 {
        fill: url(#linear-gradient-35);
      }

      .cls-15 {
        fill: url(#linear-gradient-48);
      }

      .cls-16 {
        fill: url(#linear-gradient-32);
      }

      .cls-17 {
        fill: url(#linear-gradient-11);
      }

      .cls-18 {
        fill: url(#linear-gradient-50);
      }

      .cls-19 {
        fill: url(#linear-gradient-39);
      }

      .cls-20 {
        fill: url(#linear-gradient-10);
      }

      .cls-21 {
        fill: url(#linear-gradient-49);
      }

      .cls-22 {
        fill: url(#linear-gradient-37);
      }

      .cls-23 {
        fill: url(#linear-gradient-16);
      }

      .cls-24 {
        fill: url(#linear-gradient-31);
      }

      .cls-25 {
        fill: url(#linear-gradient-41);
      }

      .cls-26 {
        fill: url(#linear-gradient-21);
      }

      .cls-27 {
        fill: url(#linear-gradient-25);
      }

      .cls-28 {
        fill: url(#linear-gradient-5);
      }

      .cls-29 {
        fill: url(#linear-gradient-45);
      }

      .cls-30 {
        fill: url(#linear-gradient-34);
      }

      .cls-31 {
        fill: url(#linear-gradient-7);
      }

      .cls-32 {
        fill: url(#linear-gradient-24);
      }

      .cls-33 {
        fill: url(#linear-gradient-9);
      }

      .cls-34 {
        fill: url(#linear-gradient-22);
      }

      .cls-35 {
        fill: url(#linear-gradient-42);
      }

      .cls-36 {
        fill: url(#linear-gradient-3);
      }

      .cls-37 {
        fill: #aa1d22;
      }

      .cls-38 {
        fill: url(#linear-gradient);
      }

      .cls-39 {
        fill: url(#linear-gradient-27);
      }

      .cls-40 {
        fill: url(#linear-gradient-33);
      }

      .cls-41 {
        fill: url(#linear-gradient-38);
      }

      .cls-42 {
        fill: url(#linear-gradient-29);
      }

      .cls-43 {
        fill: url(#linear-gradient-30);
      }

      .cls-44 {
        fill: url(#linear-gradient-23);
      }

      .cls-45 {
        fill: url(#linear-gradient-19);
      }

      .cls-46 {
        fill: url(#linear-gradient-4);
      }

      .cls-47 {
        fill: url(#linear-gradient-8);
      }

      .cls-48 {
        fill: url(#linear-gradient-44);
      }

      .cls-49 {
        fill: url(#linear-gradient-47);
      }

      .cls-50 {
        fill: url(#linear-gradient-46);
      }

      .cls-51 {
        fill: url(#linear-gradient-12);
      }

      .cls-52 {
        fill: url(#linear-gradient-13);
      }

      .cls-53 {
        fill: url(#linear-gradient-26);
      }
    </style>
    <linearGradient id="linear-gradient" x1="44.05" y1="54.47" x2="52.69" y2="54.47" gradientUnits="userSpaceOnUse">
      <stop offset="0" stop-color="#937648"/>
      <stop offset=".47" stop-color="#fdf3aa"/>
      <stop offset="1" stop-color="#937648"/>
    </linearGradient>
    <linearGradient id="linear-gradient-2" x1="49.77" y1="56.53" x2="56.41" y2="56.53" xlink:href="#linear-gradient"/>
    <linearGradient id="linear-gradient-3" x1="51.18" y1="62.45" x2="56.24" y2="62.45" xlink:href="#linear-gradient"/>
    <linearGradient id="linear-gradient-4" x1="37.99" y1="34.55" x2="57.24" y2="34.55" xlink:href="#linear-gradient"/>
    <linearGradient id="linear-gradient-5" x1="57.63" y1="51.32" x2="62.31" y2="51.32" xlink:href="#linear-gradient"/>
    <linearGradient id="linear-gradient-6" x1="58.26" y1="38.99" x2="64.34" y2="38.99" xlink:href="#linear-gradient"/>
    <linearGradient id="linear-gradient-7" x1="25.37" y1="55.09" x2="30.73" y2="55.09" xlink:href="#linear-gradient"/>
    <linearGradient id="linear-gradient-8" x1="30.03" y1="39.69" x2="34.82" y2="39.69" xlink:href="#linear-gradient"/>
    <linearGradient id="linear-gradient-9" x1="20.49" y1="55.09" x2="79.09" y2="55.09" xlink:href="#linear-gradient"/>
    <linearGradient id="linear-gradient-10" x1="10" y1="58.87" x2="16.98" y2="58.87" xlink:href="#linear-gradient"/>
    <linearGradient id="linear-gradient-11" x1="11.69" y1="52.01" x2="16.83" y2="52.01" xlink:href="#linear-gradient"/>
    <linearGradient id="linear-gradient-12" x1="10.61" y1="44.63" x2="11.95" y2="44.63" gradientTransform="translate(51.5 22.23) rotate(75.07)" xlink:href="#linear-gradient"/>
    <linearGradient id="linear-gradient-13" x1="12.6" y1="46.14" x2="18.21" y2="46.14" xlink:href="#linear-gradient"/>
    <linearGradient id="linear-gradient-14" x1="12.73" y1="40.02" x2="20.65" y2="40.02" xlink:href="#linear-gradient"/>
    <linearGradient id="linear-gradient-15" x1="18.19" y1="34.09" x2="23.52" y2="34.09" xlink:href="#linear-gradient"/>
    <linearGradient id="linear-gradient-16" x1="27.53" y1="24.59" x2="33.14" y2="24.59" xlink:href="#linear-gradient"/>
    <linearGradient id="linear-gradient-17" x1="39.15" y1="19.22" x2="44.33" y2="19.22" xlink:href="#linear-gradient"/>
    <linearGradient id="linear-gradient-18" x1="44.98" y1="20.18" x2="50.95" y2="20.18" xlink:href="#linear-gradient"/>
    <linearGradient id="linear-gradient-19" x1="51.9" y1="19.51" x2="57.06" y2="19.51" xlink:href="#linear-gradient"/>
    <linearGradient id="linear-gradient-20" x1="64.98" y1="22.75" x2="69.45" y2="22.75" gradientTransform="translate(55.06 -47.16) rotate(61.44)" xlink:href="#linear-gradient"/>
    <linearGradient id="linear-gradient-21" x1="72.97" y1="31.03" x2="81.91" y2="31.03" xlink:href="#linear-gradient"/>
    <linearGradient id="linear-gradient-22" x1="77.85" y1="36.7" x2="83.65" y2="36.7" xlink:href="#linear-gradient"/>
    <linearGradient id="linear-gradient-23" x1="80.27" y1="42.42" x2="86.26" y2="42.42" xlink:href="#linear-gradient"/>
    <linearGradient id="linear-gradient-24" x1="79.98" y1="48.45" x2="87.53" y2="48.45" xlink:href="#linear-gradient"/>
    <linearGradient id="linear-gradient-25" x1="83" y1="55.23" x2="90" y2="55.23" xlink:href="#linear-gradient"/>
    <linearGradient id="linear-gradient-26" x1="80.21" y1="61.72" x2="87.55" y2="61.72" xlink:href="#linear-gradient"/>
    <linearGradient id="linear-gradient-27" x1="10" y1="50" x2="90" y2="50" xlink:href="#linear-gradient"/>
    <linearGradient id="linear-gradient-28" x1="10" y1="50" x2="90" y2="50" xlink:href="#linear-gradient"/>
    <linearGradient id="linear-gradient-29" x1="10" y1="50" x2="90" y2="50" xlink:href="#linear-gradient"/>
    <linearGradient id="linear-gradient-30" x1="10" y1="50" x2="90" y2="50" xlink:href="#linear-gradient"/>
    <linearGradient id="linear-gradient-31" x1="10" y1="50" x2="90" y2="50" xlink:href="#linear-gradient"/>
    <linearGradient id="linear-gradient-32" x1="10" y1="50" x2="90" y2="50" xlink:href="#linear-gradient"/>
    <linearGradient id="linear-gradient-33" x1="10" y1="50" x2="90" y2="50" xlink:href="#linear-gradient"/>
    <linearGradient id="linear-gradient-34" x1="10" y1="50" x2="90" y2="50" xlink:href="#linear-gradient"/>
    <linearGradient id="linear-gradient-35" x1="10" y1="50" x2="90" y2="50" xlink:href="#linear-gradient"/>
    <linearGradient id="linear-gradient-36" x1="10" y1="50" x2="90" y2="50" xlink:href="#linear-gradient"/>
    <linearGradient id="linear-gradient-37" x1="10" y1="50" x2="90" y2="50" xlink:href="#linear-gradient"/>
    <linearGradient id="linear-gradient-38" x1="10" y1="50" x2="90" y2="50" gradientTransform="translate(51.5 22.23) rotate(75.07)" xlink:href="#linear-gradient"/>
    <linearGradient id="linear-gradient-39" x1="10" y1="50" x2="90" y2="50" xlink:href="#linear-gradient"/>
    <linearGradient id="linear-gradient-40" x1="10" y1="50" x2="90" y2="50" xlink:href="#linear-gradient"/>
    <linearGradient id="linear-gradient-41" x1="10" y1="50" x2="90" y2="50" xlink:href="#linear-gradient"/>
    <linearGradient id="linear-gradient-42" x1="10" y1="50" x2="90" y2="50" xlink:href="#linear-gradient"/>
    <linearGradient id="linear-gradient-43" x1="10" y1="50" x2="90" y2="50" xlink:href="#linear-gradient"/>
    <linearGradient id="linear-gradient-44" x1="10" y1="50" x2="90" y2="50" xlink:href="#linear-gradient"/>
    <linearGradient id="linear-gradient-45" x1="10" y1="50" x2="90" y2="50" xlink:href="#linear-gradient"/>
    <linearGradient id="linear-gradient-46" x1="10" y1="50" x2="90" y2="50" gradientTransform="translate(55.06 -47.16) rotate(61.44)" xlink:href="#linear-gradient"/>
    <linearGradient id="linear-gradient-47" x1="10" y1="50" x2="90" y2="50" xlink:href="#linear-gradient"/>
    <linearGradient id="linear-gradient-48" x1="10" y1="50" x2="90" y2="50" xlink:href="#linear-gradient"/>
    <linearGradient id="linear-gradient-49" x1="10" y1="50" x2="90" y2="50" xlink:href="#linear-gradient"/>
    <linearGradient id="linear-gradient-50" x1="10" y1="50" x2="90" y2="50" xlink:href="#linear-gradient"/>
    <linearGradient id="linear-gradient-51" x1="10" y1="50" x2="90" y2="50" xlink:href="#linear-gradient"/>
    <linearGradient id="linear-gradient-52" x1="10" y1="50" x2="90" y2="50" xlink:href="#linear-gradient"/>
  </defs>
  <rect class="cls-37" width="100" height="100"/>
  <g>
    <g>
      <path class="cls-38" d="M44.51,59.95c1.42-5.05,3.63-8.5,6.76-10.55,.11-.07,.24-.11,.37-.1h.01c.17,.01,.32,.1,.43,.23,.1,.13,.15,.28,.13,.44-.16,1.18-.78,2.47-1.56,4.1-.28,.59-.6,1.25-.92,1.96-.05,.12,0,.26,.12,.31,.12,.05,.26,0,.31-.12,.32-.71,.63-1.34,.92-1.95,.8-1.67,1.43-2.98,1.6-4.24,.04-.28-.04-.57-.23-.8-.19-.23-.47-.38-.76-.4h-.02c-.23-.02-.47,.05-.66,.17-1.74,1.14-3.23,2.75-4.44,4.77-1.01,1.69-1.85,3.72-2.51,6.05-.04,.13,.04,.25,.16,.29,.02,0,.04,0,.06,0,.1,0,.2-.07,.23-.17Z"/>
      <path class="cls-1" d="M51.29,60.31c1-1.27,1.75-2.03,2.47-2.77,.65-.66,1.26-1.28,1.97-2.2,0,0,0,0,.01-.01,.39-.6,.8-1.28,.62-1.87-.09-.29-.3-.5-.63-.64-1.62-.68-3.19,.87-4.46,2.12-.52,.51-1,.99-1.39,1.21-.11,.06-.15,.21-.09,.32,.06,.11,.21,.15,.32,.09,.44-.25,.92-.73,1.48-1.28,1.17-1.15,2.62-2.58,3.95-2.02,.2,.09,.32,.2,.37,.35,.13,.42-.33,1.13-.56,1.47-.7,.89-1.3,1.5-1.93,2.15-.73,.74-1.49,1.51-2.5,2.81-.08,.1-.06,.25,.04,.33,.04,.03,.09,.05,.14,.05,.07,0,.14-.03,.19-.09Z"/>
      <path class="cls-36" d="M52.66,66.64c.29-1.18,.95-2.23,1.59-3.25,.19-.3,.38-.6,.56-.91,.73-1.22,1.85-3.38,1.26-4.14-.22-.28-.61-.34-1.16-.17-1.18,.36-2.13,1.38-2.98,2.29-.24,.26-.46,.5-.69,.72-.09,.09-.09,.24,0,.33,.09,.09,.24,.09,.33,0,.23-.23,.46-.47,.7-.73,.8-.86,1.71-1.84,2.77-2.16,.19-.06,.53-.14,.65,.01,.28,.36-.27,1.87-1.3,3.61-.18,.3-.37,.6-.55,.9-.66,1.05-1.35,2.13-1.65,3.39-.03,.13,.05,.25,.17,.28,.02,0,.04,0,.06,0,.11,0,.2-.07,.23-.18Z"/>
      <path class="cls-46" d="M55.12,31.08c-1.01,.11-2.4,.37-3.92,.73-.82-1.08-2.12-1.78-3.59-1.78-2.43,0-4.42,1.94-4.51,4.35-1.45,.59-2.73,1.2-3.63,1.73-1.46,.86-1.55,1.27-1.46,1.54,.13,.39,.7,.45,1.13,.45,.03,0,.06,0,.09,0,.53,0,1.24-.08,2.11-.22,.81-.14,1.73-.34,2.71-.58,.83,1.07,2.12,1.75,3.57,1.75,2.44,0,4.43-1.95,4.51-4.37,.94-.38,1.8-.75,2.54-1.12,.83-.41,1.48-.78,1.91-1.1,.34-.25,.78-.64,.65-1.03-.13-.39-.75-.5-2.09-.36Zm-13.73,6.31c-2.16,.38-2.84,.22-2.93,.12,.02-.05,.16-.37,1.38-1.06,.84-.48,1.99-1.03,3.28-1.56,.06,.73,.28,1.41,.64,2-.85,.21-1.65,.38-2.37,.51Zm6.22,1.19c-1.22,0-2.32-.55-3.06-1.41,1.13-.29,2.34-.65,3.58-1.05,1.24-.4,2.42-.82,3.51-1.25-.17,2.07-1.91,3.71-4.02,3.71Zm.37-2.91c-1.29,.42-2.56,.79-3.74,1.09-.42-.64-.67-1.4-.67-2.22,0-2.23,1.81-4.04,4.04-4.04s3.94,1.72,4.03,3.86c-1.13,.45-2.38,.89-3.67,1.31Zm6.34-2.47c-.66,.32-1.4,.65-2.22,.98-.06-.71-.28-1.37-.63-1.95,1.37-.32,2.58-.55,3.53-.66,1.39-.16,1.7-.01,1.75,.02-.02,.14-.49,.67-2.44,1.62Z"/>
      <path class="cls-28" d="M59.42,50.02l-1.34-.34c-.1-.03-.19,.09-.13,.18l.64,1.08s.02,.09,0,.12l-.93,1.48c-.06,.1,.04,.22,.14,.18l1.6-.62c.05-.02,.12,0,.15,.05l.87,1.45c.06,.1,.21,.07,.22-.05l.2-1.51s.03-.07,.06-.09l1.35-.74c.09-.05,.08-.18-.02-.22l-1.5-.55s-.08-.06-.08-.11l-.06-1.22c0-.11-.14-.15-.21-.07l-.84,.94s-.08,.05-.12,.04Z"/>
      <path class="cls-13" d="M60.59,37.29l-1.74-.44c-.13-.03-.24,.11-.17,.23l.83,1.4c.03,.05,.03,.11,0,.16l-1.21,1.93c-.08,.13,.05,.28,.19,.23l2.08-.81c.07-.03,.15,0,.19,.07l1.13,1.89c.08,.13,.27,.09,.29-.06l.26-1.96s.04-.09,.08-.12l1.76-.96c.12-.06,.11-.24-.02-.28l-1.95-.72c-.06-.02-.1-.08-.1-.14l-.08-1.59c0-.14-.18-.2-.27-.1l-1.09,1.22s-.1,.06-.15,.05Z"/>
      <path class="cls-31" d="M27.01,54.04l-1.55,.62c-.12,.05-.12,.22,0,.27l1.39,.6s.08,.07,.09,.12l.14,2.11c0,.14,.19,.19,.27,.07l1.12-1.75c.04-.06,.11-.08,.18-.06l1.88,.8c.13,.05,.25-.08,.18-.2l-.88-1.61s-.02-.09,0-.13l.8-1.68c.05-.11-.05-.24-.17-.2l-1.86,.53c-.06,.02-.12,0-.15-.05l-.93-1.15c-.08-.1-.24-.05-.26,.08l-.15,1.52c0,.05-.04,.1-.09,.12Z"/>
      <path class="cls-47" d="M32.02,38.3l-1.31-.44c-.1-.03-.19,.07-.15,.17l.55,1.12s.02,.09-.01,.12l-1.05,1.41c-.07,.09,.02,.22,.13,.19l1.65-.5c.06-.02,.12,0,.14,.06l.75,1.52c.05,.1,.2,.08,.22-.03l.31-1.49s.03-.07,.07-.08l1.41-.63c.09-.04,.09-.18,0-.22l-1.45-.67s-.07-.06-.07-.11l.03-1.22c0-.11-.13-.16-.2-.09l-.91,.88s-.08,.04-.12,.03Z"/>
      <path class="cls-33" d="M76.79,43.68c-1.48-3.49-3.59-6.62-6.28-9.31-2.69-2.69-5.82-4.8-9.31-6.28-3.61-1.53-7.45-2.3-11.4-2.3s-7.79,.77-11.4,2.3c-3.49,1.48-6.62,3.59-9.31,6.28-2.69,2.69-4.8,5.82-6.28,9.31-1.53,3.61-2.3,7.45-2.3,11.4s.77,7.79,2.3,11.4c1.48,3.49,3.59,6.62,6.28,9.31,2.69,2.69,5.82,4.8,9.31,6.28,3.61,1.53,7.45,2.3,11.4,2.3s7.79-.77,11.4-2.3c3.49-1.48,6.62-3.59,9.31-6.28,2.69-2.69,4.8-5.82,6.28-9.31,1.53-3.61,2.3-7.45,2.3-11.4s-.77-7.79-2.3-11.4Zm-27,39.64c-2.02,0-3.99-.21-5.89-.62-.55-3.4-1.24-6.78-1.91-10.08-.95-4.68-1.94-9.51-2.53-14.35,1.39-4.75,3.27-10.3,6.72-15.52,.27-.41,.56-.69,.87-.86,.11-.06,.25-.06,.37-.01,.12,.05,.21,.15,.25,.27,.06,.21,.08,.51,.05,.85-.28,3.19-3.03,9.92-3.23,10.25-.01,.02-.02,.04-.03,.07-.12,.43-.25,.85-.39,1.26-.4,1.23-.78,2.39-.53,3.6,0,0,0,.01,0,.02,.2,.64,.39,1.33,.58,1.99,.56,1.97,1.14,4.01,1.99,5.58,.04,2.01,.16,4,.46,6.02,.06,1.55,.11,3.16-.28,4.51-.04,.12,.04,.25,.16,.29,.12,.04,.26-.03,.29-.16,.42-1.43,.36-3.08,.3-4.67,0,0,0-.02,0-.03-.3-2.01-.42-4-.46-6,0-.01,0-.03,0-.04-.03-1.8,0-3.62,.04-5.48,.02-1.11,.05-2.26,.05-3.41,.16-1.35,.33-2.74,1.04-3.72,.17-.23,.47-.34,.76-.27,.03,.02,.22,.19,.58,1.23,.23,.66,.45,1.44,.59,1.96,.07,.26,.13,.46,.16,.57,.44,1.35,.85,2.81,1.26,4.49,.25,1.04,.42,2.13,.58,3.18,.22,1.47,.46,2.99,.93,4.44,.42,1.28,1.1,2.45,1.77,3.58,.63,1.08,1.28,2.19,1.69,3.38,.67,1.95,1.19,4.27,1.38,6.64-2.43,.68-4.99,1.05-7.63,1.05Zm8.09-1.18c-.2-2.39-.73-4.71-1.4-6.66-.42-1.24-1.09-2.37-1.73-3.46-.65-1.11-1.32-2.25-1.72-3.49-.46-1.41-.69-2.91-.91-4.36-.16-1.06-.33-2.16-.58-3.21-.41-1.68-.82-3.16-1.27-4.52-.03-.1-.09-.3-.16-.55-.7-2.52-1.08-3.4-1.49-3.51-.48-.13-.99,.05-1.27,.44-.78,1.08-.96,2.54-1.13,3.95,0,0,0,.02,0,.03,0,1.15-.03,2.3-.05,3.42-.03,1.52-.06,3.01-.05,4.48-.61-1.38-1.08-3.02-1.53-4.61-.19-.66-.38-1.35-.58-1.99-.22-1.09,.14-2.19,.52-3.35,.13-.41,.27-.83,.39-1.26,.34-.65,3-7.18,3.28-10.42,.04-.41,.01-.76-.07-1.03-.08-.26-.27-.47-.52-.57-.25-.1-.53-.09-.77,.03-.38,.2-.73,.54-1.04,1.01-3.5,5.29-5.4,10.91-6.8,15.7,0,.03-.01,.06,0,.09,.59,4.87,1.58,9.73,2.54,14.43,.66,3.23,1.33,6.54,1.88,9.88-12.51-2.9-21.86-14.14-21.86-27.51,0-15.57,12.67-28.24,28.24-28.24s28.24,12.67,28.24,28.24c0,12.76-8.51,23.57-20.15,27.06Z"/>
      <g>
        <path class="cls-20" d="M16.71,58.79s-.11-.06-.17-.05c-.07,0-.12,.04-.16,.09-.04,.05-.05,.13-.04,.25l.09,.85-5.29,.55,5.4-4-.06-.59-5.97,.62-.04-.39c-.01-.11-.04-.19-.09-.23-.05-.04-.11-.06-.18-.05-.07,0-.12,.04-.16,.09-.04,.05-.05,.13-.04,.24l.18,1.7c.01,.11,.04,.19,.09,.23,.05,.04,.1,.06,.17,.05,.07,0,.12-.04,.16-.09s.05-.13,.04-.24l-.09-.85,5.3-.55-5.41,4,.13,1.21c.01,.11,.04,.19,.09,.23,.05,.04,.11,.06,.17,.05,.07,0,.12-.04,.16-.09,.04-.05,.05-.13,.04-.24l-.06-.62,5.51-.57,.04,.38c.01,.11,.04,.19,.09,.24,.05,.04,.11,.06,.17,.05,.07,0,.12-.04,.16-.09,.04-.05,.05-.13,.04-.25l-.18-1.7c-.01-.11-.04-.19-.09-.23Z"/>
        <path class="cls-17" d="M16.83,49.72c0-.11,0-.2-.05-.25-.04-.05-.09-.08-.16-.08-.07,0-.13,.01-.17,.06-.05,.04-.07,.12-.08,.24l-.05,.62-3.06-.24c-.36-.03-.7,.11-1.02,.41-.31,.3-.49,.75-.54,1.33-.02,.29,.02,.73,.13,1.32,.07,.37,.13,.58,.18,.64,.03,.04,.08,.06,.14,.07,.07,0,.12-.01,.17-.05,.05-.04,.07-.09,.08-.15,0-.03,0-.11-.04-.23-.16-.67-.22-1.18-.19-1.54,.04-.47,.16-.81,.37-1.03,.21-.22,.44-.32,.69-.3l.75,.06c-.08,.29-.15,.55-.19,.8-.05,.25-.08,.48-.1,.69-.06,.79,.06,1.4,.36,1.84,.3,.44,.68,.67,1.12,.71,.41,.03,.76-.1,1.07-.39,.31-.29,.48-.71,.52-1.27,.06-.76-.16-1.5-.68-2.22l.67,.05,.09-1.08Zm-.69,2.1c.13,.36,.18,.73,.15,1.13-.03,.42-.15,.73-.36,.93-.21,.2-.45,.29-.73,.27-.3-.02-.55-.19-.74-.49-.26-.4-.36-.94-.31-1.61,.02-.27,.06-.52,.1-.76,.05-.24,.11-.47,.19-.68l1.02,.08c.32,.39,.55,.76,.68,1.12Z"/>
        <rect class="cls-51" x="10.94" y="44.03" width=".68" height="1.2" transform="translate(-34.75 44.03) rotate(-75.07)"/>
        <path class="cls-52" d="M18.04,43.85c-.07-.02-.13,0-.18,.03-.05,.04-.09,.11-.12,.22l-.47,1.76-4.17-1.11-.47,1.76c-.03,.11-.03,.19,0,.25,.03,.06,.08,.1,.15,.11,.06,.02,.12,0,.18-.03,.06-.04,.1-.11,.13-.21l.35-1.31,3.72,.99-.47,1.76c-.03,.11-.03,.19,0,.25,.03,.06,.08,.09,.14,.11,.06,.02,.12,0,.18-.03,.06-.03,.1-.11,.13-.21l1.06-3.97c.03-.11,.03-.19,0-.25-.03-.06-.08-.09-.14-.11Z"/>
        <path class="cls-10" d="M20.34,38.32c-.06,.03-.11,.09-.16,.19l-.78,1.65-5.85-2.76-.77,1.63c-.05,.1-.06,.19-.04,.25,.02,.06,.06,.11,.12,.14,.06,.03,.13,.03,.19,0s.12-.09,.16-.19l.57-1.21,5.43,2.56-.78,1.65c-.05,.1-.06,.18-.04,.24,.02,.06,.06,.11,.12,.14,.06,.03,.12,.03,.18,0,.06-.02,.11-.09,.16-.19l1.75-3.72c.05-.1,.06-.19,.04-.25s-.06-.11-.12-.14c-.06-.03-.12-.03-.18,0Z"/>
        <path class="cls-5" d="M22.99,32.78c-.22-.15-.47-.23-.75-.22-.29,0-.59,.12-.9,.34-.22,.15-.54,.47-.97,.95-.33,.37-.59,.6-.78,.68-.27,.12-.49,.12-.67,0-.16-.11-.24-.3-.24-.57,0-.36,.15-.75,.45-1.17,.29-.4,.61-.67,.95-.8,.24-.08,.45-.07,.64,.04,.08,.05,.15,.07,.2,.05,.06-.01,.1-.04,.14-.09,.04-.06,.05-.12,.04-.18-.01-.06-.06-.13-.15-.19l-.65-.46c-.09-.07-.17-.1-.24-.09-.06,0-.12,.04-.16,.1-.04,.05-.05,.11-.04,.18,.01,.06,.06,.13,.15,.19-.49,.14-.92,.48-1.29,1-.32,.44-.49,.89-.53,1.34-.04,.45,.11,.8,.43,1.03,.18,.13,.39,.19,.63,.19,.24,0,.47-.08,.69-.23,.22-.15,.53-.44,.91-.87,.38-.43,.73-.72,1.05-.87,.31-.14,.59-.13,.82,.04,.2,.15,.31,.4,.32,.77,.01,.37-.16,.8-.51,1.29-.24,.33-.49,.58-.74,.74s-.5,.24-.72,.25c-.14,0-.28-.05-.42-.14-.06-.04-.13-.06-.19-.05-.06,.01-.12,.04-.15,.1-.04,.06-.05,.12-.04,.18,.01,.06,.07,.13,.16,.19l.78,.56c.09,.06,.17,.09,.23,.08,.06,0,.12-.04,.15-.09,.03-.04,.04-.08,.04-.13,0-.05,0-.09-.03-.12-.02-.03-.08-.09-.18-.16,.57-.16,1.08-.54,1.5-1.14,.43-.6,.63-1.14,.6-1.62-.03-.49-.2-.85-.52-1.08Z"/>
        <path class="cls-23" d="M32.95,25.53c-.06,0-.14,.02-.23,.08l-.33,.22-.52-.22c0-.41-.1-.93-.3-1.54,.12-.08,.19-.14,.21-.17,.02-.03,.03-.07,.03-.12,0-.05-.01-.09-.04-.13-.04-.06-.09-.09-.15-.1-.06-.01-.14,.02-.23,.08l-.38,.25c.2,.53,.32,1.04,.37,1.52l-2.2-.99c-.57-.26-.92-.48-1.05-.68-.13-.19-.17-.42-.11-.68,.05-.26,.19-.46,.4-.6,.1-.07,.22-.12,.35-.14,.13-.03,.27-.03,.42,0l.19-.36c.04-.08,.06-.14,.06-.18s-.01-.09-.04-.12c-.04-.06-.09-.09-.15-.1-.06-.01-.12,0-.17,.03-.03,.02-.09,.11-.18,.26-.15,0-.28,.03-.41,.07-.12,.04-.24,.09-.34,.16-.32,.21-.52,.51-.6,.89-.08,.38-.02,.72,.19,1.03,.08,.12,.18,.23,.3,.31,.12,.09,.42,.24,.89,.45-.27,.32-.41,.67-.43,1.04-.02,.38,.08,.73,.29,1.05,.28,.42,.66,.68,1.13,.79,.47,.11,.89,.04,1.26-.21,.44-.29,.66-.73,.66-1.32l.6,.26,.52-.35c.09-.06,.15-.12,.16-.19,.02-.06,0-.12-.03-.18-.04-.06-.09-.09-.15-.1Zm-2.03,1.49c-.25,.17-.56,.21-.9,.13-.35-.08-.63-.28-.83-.59-.17-.26-.25-.54-.22-.83,.03-.29,.15-.55,.36-.78l2.06,.92c.03,.53-.12,.92-.47,1.14Z"/>
        <path class="cls-3" d="M43.84,19.3c-.22-.21-.5-.35-.84-.42-.26-.05-.7-.06-1.34-.01-.38,.02-.66,.03-.85,.01-.19-.02-.36-.05-.51-.11-.16-.06-.29-.15-.41-.28-.12-.13-.2-.28-.24-.46-.08-.35,0-.68,.23-1.01,.23-.32,.6-.54,1.1-.66,.47-.11,.88-.08,1.23,.1,.35,.17,.57,.41,.65,.71,.03,.1,.06,.16,.12,.19,.05,.03,.11,.04,.17,.03,.07-.02,.12-.05,.15-.11,.03-.06,.03-.14,0-.25l-.27-1.15c-.02-.11-.06-.18-.11-.22-.05-.04-.11-.05-.18-.03-.07,.02-.12,.05-.15,.11-.03,.06-.03,.14,0,.25l.03,.15c-.55-.29-1.14-.37-1.77-.22-.62,.14-1.08,.43-1.38,.86-.3,.43-.4,.88-.29,1.35,.11,.48,.36,.81,.75,.99,.39,.18,.97,.25,1.75,.2,.57-.03,.95-.03,1.13,0,.27,.05,.49,.15,.66,.31,.17,.16,.28,.35,.33,.59,.09,.39,0,.76-.26,1.12-.26,.36-.68,.6-1.25,.73-.57,.13-1.05,.1-1.45-.09-.4-.19-.64-.45-.74-.78-.03-.1-.06-.16-.12-.19-.05-.03-.11-.04-.17-.03-.07,.02-.12,.05-.15,.11-.03,.06-.03,.14,0,.25l.29,1.25c.02,.11,.06,.18,.12,.22,.05,.04,.11,.05,.18,.03,.07-.02,.12-.05,.15-.11,.03-.06,.03-.14,0-.25l-.06-.26c.58,.38,1.27,.48,2.05,.3,.7-.16,1.21-.47,1.54-.93,.33-.46,.43-.95,.31-1.46-.08-.34-.23-.61-.44-.82Z"/>
        <path class="cls-6" d="M49.64,16.84c-.4-.2-.82-.28-1.28-.26-.43,.02-.8,.12-1.11,.3-.31,.18-.59,.45-.86,.8l-.04-.84-1.09,.05c-.11,0-.19,.03-.23,.08-.05,.05-.07,.1-.06,.17,0,.07,.03,.13,.08,.17,.05,.04,.13,.06,.24,.06l.62-.03,.27,5.98-.62,.03c-.11,0-.19,.03-.23,.07-.05,.04-.07,.1-.06,.17,0,.07,.03,.13,.08,.16,.05,.04,.13,.06,.24,.05l2.21-.1c.11,0,.19-.03,.23-.08,.05-.05,.07-.1,.06-.17,0-.07-.03-.13-.08-.17-.05-.04-.13-.06-.24-.05l-1.13,.05-.12-2.79c.54,.65,1.23,.96,2.06,.92,.7-.03,1.27-.29,1.73-.79,.46-.49,.67-1.07,.64-1.74-.02-.42-.14-.81-.37-1.19-.23-.37-.54-.66-.94-.85Zm.31,3.46c-.37,.4-.84,.61-1.39,.63-.56,.03-1.05-.14-1.45-.51-.41-.37-.62-.81-.65-1.35-.02-.53,.15-.99,.52-1.39,.37-.4,.84-.61,1.4-.64,.56-.02,1.04,.14,1.45,.51,.4,.36,.62,.81,.64,1.35,.02,.54-.15,1-.52,1.4Z"/>
        <path class="cls-45" d="M56.78,21.68l-.61-.08,.42-3.04c.05-.36-.07-.71-.35-1.04-.28-.33-.72-.54-1.3-.62-.29-.04-.73-.02-1.32,.05-.37,.04-.59,.09-.65,.14-.04,.03-.07,.08-.08,.14,0,.07,0,.12,.04,.17,.04,.05,.08,.08,.14,.09,.03,0,.11,0,.23-.02,.67-.12,1.19-.15,1.55-.1,.47,.06,.8,.21,1.01,.42,.21,.22,.29,.45,.26,.7l-.1,.74c-.28-.1-.54-.18-.79-.24-.24-.06-.47-.11-.68-.14-.78-.11-1.4-.03-1.86,.25-.45,.28-.71,.64-.77,1.08-.06,.4,.05,.77,.32,1.09,.27,.32,.68,.52,1.23,.6,.76,.11,1.51-.08,2.26-.55l-.09,.66,1.08,.15c.11,.02,.2,0,.25-.03,.05-.04,.08-.09,.09-.15,0-.07,0-.13-.05-.18-.04-.05-.12-.08-.23-.1Zm-.96-.96c-.41,.3-.8,.5-1.16,.61-.36,.11-.74,.14-1.14,.08-.42-.06-.72-.2-.91-.42-.19-.22-.27-.47-.23-.75,.04-.3,.22-.54,.53-.71,.42-.24,.96-.31,1.62-.22,.27,.04,.52,.09,.75,.15,.24,.06,.46,.14,.67,.23l-.14,1.01Z"/>
        <rect class="cls-12" x="66.88" y="20.38" width=".66" height="4.73" transform="translate(15.1 70.91) rotate(-61.44)"/>
        <path class="cls-26" d="M77.06,34.76l4.2-3.61,.19,.22c.07,.09,.14,.13,.21,.14,.06,0,.12,0,.17-.06,.05-.05,.08-.1,.08-.16,0-.06-.04-.14-.11-.23l-.74-.86-4.16,1.3,1.89-3.94-.74-.86c-.07-.08-.14-.13-.2-.14-.06,0-.12,.01-.17,.06-.05,.05-.08,.1-.08,.16,0,.06,.03,.14,.11,.22l.19,.22-4.2,3.61-.26-.3c-.07-.08-.14-.13-.2-.14-.06,0-.12,.01-.17,.06-.05,.04-.08,.1-.08,.16,0,.06,.03,.14,.1,.22l1.12,1.3c.07,.08,.14,.13,.2,.14,.06,0,.12-.01,.17-.05,.05-.05,.08-.1,.08-.16,0-.06-.03-.14-.11-.22l-.56-.65,4.2-3.61,.06,.07-1.91,4,.35,.4,4.22-1.32,.06,.08-4.2,3.61-.56-.65c-.07-.09-.14-.13-.21-.14-.06,0-.12,0-.17,.06-.05,.04-.08,.1-.08,.16,0,.07,.03,.14,.11,.23l1.11,1.29c.07,.09,.14,.13,.21,.14,.06,0,.12-.01,.17-.05,.05-.05,.08-.1,.08-.16,0-.06-.04-.14-.11-.23l-.25-.29Z"/>
        <path class="cls-34" d="M80.18,40.08c.01-.06,0-.14-.06-.24l-.2-.34,3.73-2.18-.67-1.14c-.06-.1-.11-.15-.18-.17-.06-.02-.12-.01-.18,.02-.06,.04-.1,.08-.11,.15s0,.14,.06,.24l.43,.74-2.59,1.51c-.92-.2-1.56-.62-1.94-1.27-.14-.25-.18-.5-.11-.77,.07-.26,.24-.47,.5-.62l2.99-1.74-.55-.94c-.06-.09-.11-.15-.18-.17-.06-.02-.12-.01-.18,.02-.06,.04-.1,.09-.11,.15-.01,.06,0,.14,.06,.24l.31,.54-2.59,1.51c-.37,.22-.62,.54-.75,.97-.09,.33-.03,.69,.2,1.08,.37,.64,.96,1.08,1.78,1.34l-.59,.34,.43,.74c.06,.1,.11,.15,.18,.17,.06,.02,.12,.01,.18-.02,.06-.04,.1-.08,.11-.15Z"/>
        <path class="cls-44" d="M84.74,40.98l-3.64,1.32-.38-1.05c-.04-.11-.09-.18-.14-.2-.06-.03-.11-.03-.17-.01-.06,.02-.11,.06-.13,.12-.02,.06-.02,.14,.02,.25l1.24,3.42c.04,.11,.09,.18,.15,.21,.06,.03,.12,.03,.18,.01,.07-.02,.11-.07,.13-.12s.02-.14-.02-.25l-.7-1.93,2.39-.87c.83,.45,1.37,.78,1.62,.99,.25,.21,.41,.41,.48,.61,.03,.09,.04,.18,.03,.29s-.06,.24-.13,.41c-.04,.09-.06,.15-.07,.18,0,.03,0,.06,.01,.1,.02,.07,.06,.11,.12,.14,.06,.03,.12,.03,.19,0,.09-.03,.18-.19,.28-.48,.09-.29,.09-.56,0-.82-.09-.24-.25-.47-.5-.7s-.73-.53-1.45-.92l1.1-.4-.45-1.24c-.04-.11-.09-.18-.14-.2-.06-.03-.12-.03-.18,0-.07,.02-.11,.07-.14,.13-.03,.06-.02,.14,.02,.25l.29,.8Z"/>
        <path class="cls-32" d="M80.47,49.19c.05,.04,.11,.05,.18,.04,.07-.01,.12-.04,.15-.1s.04-.14,.02-.24l-.19-1.11,2.76-.47c-.58,.62-.8,1.34-.66,2.16,.12,.69,.45,1.22,.99,1.62,.55,.39,1.15,.53,1.81,.42,.41-.07,.79-.24,1.13-.51,.34-.27,.58-.62,.73-1.03,.15-.42,.18-.85,.1-1.3-.07-.42-.22-.78-.44-1.06-.22-.28-.52-.53-.89-.75l.83-.14-.18-1.07c-.02-.11-.05-.18-.11-.22-.05-.04-.11-.05-.18-.04-.07,.01-.12,.04-.16,.1-.04,.05-.04,.14-.03,.25l.1,.61-5.9,1-.1-.62c-.02-.11-.05-.18-.1-.22-.05-.04-.11-.05-.18-.04-.07,.01-.12,.04-.15,.1-.03,.05-.04,.14-.02,.24l.37,2.18c.02,.11,.05,.18,.11,.22Zm4.31-2.12c.52-.09,1.01,.03,1.45,.35,.44,.32,.71,.76,.81,1.31,.09,.55-.01,1.05-.33,1.5-.31,.45-.73,.71-1.26,.8-.53,.09-1.02-.03-1.46-.35-.44-.32-.71-.76-.8-1.3-.09-.56,.01-1.06,.33-1.51,.31-.45,.73-.72,1.26-.81Z"/>
        <path class="cls-27" d="M90,52.69c0-.11-.02-.19-.06-.24-.04-.05-.1-.07-.16-.07-.07,0-.13,.02-.17,.07-.04,.05-.07,.13-.07,.24v.62s-6.01-.08-6.01-.08v-.52c0-.11-.01-.19-.05-.24-.04-.05-.1-.07-.17-.07-.07,0-.12,.02-.17,.07-.04,.05-.07,.13-.07,.24l-.02,1.51c0,.11,.02,.19,.06,.24,.04,.05,.1,.07,.16,.07,.07,0,.13-.02,.17-.07,.04-.05,.07-.13,.07-.24v-.52s2.95,.04,2.95,.04c.43,.4,.71,.69,.82,.87,.16,.24,.24,.53,.24,.87,0,.43-.12,.76-.35,1-.23,.24-.51,.35-.84,.35l-2.84-.04v-.52c0-.11-.01-.2-.05-.24-.04-.05-.1-.07-.17-.07-.07,0-.12,.02-.17,.07-.04,.05-.07,.13-.07,.24l-.02,1.51c0,.11,.02,.19,.06,.24,.04,.05,.1,.07,.16,.07,.07,0,.13-.02,.17-.07,.04-.05,.07-.13,.07-.24v-.52s2.88,.04,2.88,.04c.29,0,.57-.08,.84-.24,.27-.17,.46-.37,.59-.62,.13-.25,.2-.56,.2-.92,0-.34-.06-.64-.18-.91-.13-.27-.35-.56-.66-.86l2.86,.04v-1.09Z"/>
        <path class="cls-53" d="M87.36,59.55c-.06-.01-.12,0-.18,.04-.05,.04-.09,.11-.11,.22l-.03,.14-4.65,1.27-1.48-1.13,.28-1.42c.02-.11,.02-.19-.02-.25-.03-.06-.08-.09-.15-.1-.07-.01-.13,0-.18,.04-.05,.04-.09,.11-.11,.22l-.52,2.62c-.02,.11-.02,.19,.02,.25,.03,.06,.08,.09,.15,.1,.07,.01,.13,0,.18-.04,.05-.04,.09-.11,.11-.22l.14-.71,5.3,4.05c-.03,.17-.05,.27-.04,.31,0,.04,.03,.08,.06,.11,.03,.04,.07,.06,.12,.07,.07,.01,.13,0,.18-.04,.05-.04,.09-.11,.11-.23l.25-1.24c.02-.11,.02-.19-.02-.25-.03-.06-.08-.09-.15-.1-.07-.01-.13,0-.18,.04-.05,.04-.09,.11-.11,.22l-.12,.61-3.37-2.57,4.1-1.12-.12,.61c-.02,.11-.02,.19,.02,.25,.03,.06,.08,.09,.15,.1,.07,.01,.13,0,.18-.04,.05-.04,.09-.11,.11-.22l.25-1.25c.02-.08,.02-.14,.01-.18,0-.04-.03-.08-.06-.11-.03-.03-.07-.05-.12-.06Z"/>
      </g>
    </g>
    <g>
      <path class="cls-39" d="M44.51,59.95c1.42-5.05,3.63-8.5,6.76-10.55,.11-.07,.24-.11,.37-.1h.01c.17,.01,.32,.1,.43,.23,.1,.13,.15,.28,.13,.44-.16,1.18-.78,2.47-1.56,4.1-.28,.59-.6,1.25-.92,1.96-.05,.12,0,.26,.12,.31,.12,.05,.26,0,.31-.12,.32-.71,.63-1.34,.92-1.95,.8-1.67,1.43-2.98,1.6-4.24,.04-.28-.04-.57-.23-.8-.19-.23-.47-.38-.76-.4h-.02c-.23-.02-.47,.05-.66,.17-1.74,1.14-3.23,2.75-4.44,4.77-1.01,1.69-1.85,3.72-2.51,6.05-.04,.13,.04,.25,.16,.29,.02,0,.04,0,.06,0,.1,0,.2-.07,.23-.17Z"/>
      <path class="cls-9" d="M51.29,60.31c1-1.27,1.75-2.03,2.47-2.77,.65-.66,1.26-1.28,1.97-2.2,0,0,0,0,.01-.01,.39-.6,.8-1.28,.62-1.87-.09-.29-.3-.5-.63-.64-1.62-.68-3.19,.87-4.46,2.12-.52,.51-1,.99-1.39,1.21-.11,.06-.15,.21-.09,.32,.06,.11,.21,.15,.32,.09,.44-.25,.92-.73,1.48-1.28,1.17-1.15,2.62-2.58,3.95-2.02,.2,.09,.32,.2,.37,.35,.13,.42-.33,1.13-.56,1.47-.7,.89-1.3,1.5-1.93,2.15-.73,.74-1.49,1.51-2.5,2.81-.08,.1-.06,.25,.04,.33,.04,.03,.09,.05,.14,.05,.07,0,.14-.03,.19-.09Z"/>
      <path class="cls-42" d="M52.66,66.64c.29-1.18,.95-2.23,1.59-3.25,.19-.3,.38-.6,.56-.91,.73-1.22,1.85-3.38,1.26-4.14-.22-.28-.61-.34-1.16-.17-1.18,.36-2.13,1.38-2.98,2.29-.24,.26-.46,.5-.69,.72-.09,.09-.09,.24,0,.33,.09,.09,.24,.09,.33,0,.23-.23,.46-.47,.7-.73,.8-.86,1.71-1.84,2.77-2.16,.19-.06,.53-.14,.65,.01,.28,.36-.27,1.87-1.3,3.61-.18,.3-.37,.6-.55,.9-.66,1.05-1.35,2.13-1.65,3.39-.03,.13,.05,.25,.17,.28,.02,0,.04,0,.06,0,.11,0,.2-.07,.23-.18Z"/>
      <path class="cls-43" d="M55.12,31.08c-1.01,.11-2.4,.37-3.92,.73-.82-1.08-2.12-1.78-3.59-1.78-2.43,0-4.42,1.94-4.51,4.35-1.45,.59-2.73,1.2-3.63,1.73-1.46,.86-1.55,1.27-1.46,1.54,.13,.39,.7,.45,1.13,.45,.03,0,.06,0,.09,0,.53,0,1.24-.08,2.11-.22,.81-.14,1.73-.34,2.71-.58,.83,1.07,2.12,1.75,3.57,1.75,2.44,0,4.43-1.95,4.51-4.37,.94-.38,1.8-.75,2.54-1.12,.83-.41,1.48-.78,1.91-1.1,.34-.25,.78-.64,.65-1.03-.13-.39-.75-.5-2.09-.36Zm-13.73,6.31c-2.16,.38-2.84,.22-2.93,.12,.02-.05,.16-.37,1.38-1.06,.84-.48,1.99-1.03,3.28-1.56,.06,.73,.28,1.41,.64,2-.85,.21-1.65,.38-2.37,.51Zm6.22,1.19c-1.22,0-2.32-.55-3.06-1.41,1.13-.29,2.34-.65,3.58-1.05,1.24-.4,2.42-.82,3.51-1.25-.17,2.07-1.91,3.71-4.02,3.71Zm.37-2.91c-1.29,.42-2.56,.79-3.74,1.09-.42-.64-.67-1.4-.67-2.22,0-2.23,1.81-4.04,4.04-4.04s3.94,1.72,4.03,3.86c-1.13,.45-2.38,.89-3.67,1.31Zm6.34-2.47c-.66,.32-1.4,.65-2.22,.98-.06-.71-.28-1.37-.63-1.95,1.37-.32,2.58-.55,3.53-.66,1.39-.16,1.7-.01,1.75,.02-.02,.14-.49,.67-2.44,1.62Z"/>
      <path class="cls-24" d="M59.42,50.02l-1.34-.34c-.1-.03-.19,.09-.13,.18l.64,1.08s.02,.09,0,.12l-.93,1.48c-.06,.1,.04,.22,.14,.18l1.6-.62c.05-.02,.12,0,.15,.05l.87,1.45c.06,.1,.21,.07,.22-.05l.2-1.51s.03-.07,.06-.09l1.35-.74c.09-.05,.08-.18-.02-.22l-1.5-.55s-.08-.06-.08-.11l-.06-1.22c0-.11-.14-.15-.21-.07l-.84,.94s-.08,.05-.12,.04Z"/>
      <path class="cls-16" d="M60.59,37.29l-1.74-.44c-.13-.03-.24,.11-.17,.23l.83,1.4c.03,.05,.03,.11,0,.16l-1.21,1.93c-.08,.13,.05,.28,.19,.23l2.08-.81c.07-.03,.15,0,.19,.07l1.13,1.89c.08,.13,.27,.09,.29-.06l.26-1.96s.04-.09,.08-.12l1.76-.96c.12-.06,.11-.24-.02-.28l-1.95-.72c-.06-.02-.1-.08-.1-.14l-.08-1.59c0-.14-.18-.2-.27-.1l-1.09,1.22s-.1,.06-.15,.05Z"/>
      <path class="cls-40" d="M27.01,54.04l-1.55,.62c-.12,.05-.12,.22,0,.27l1.39,.6s.08,.07,.09,.12l.14,2.11c0,.14,.19,.19,.27,.07l1.12-1.75c.04-.06,.11-.08,.18-.06l1.88,.8c.13,.05,.25-.08,.18-.2l-.88-1.61s-.02-.09,0-.13l.8-1.68c.05-.11-.05-.24-.17-.2l-1.86,.53c-.06,.02-.12,0-.15-.05l-.93-1.15c-.08-.1-.24-.05-.26,.08l-.15,1.52c0,.05-.04,.1-.09,.12Z"/>
      <path class="cls-30" d="M32.02,38.3l-1.31-.44c-.1-.03-.19,.07-.15,.17l.55,1.12s.02,.09-.01,.12l-1.05,1.41c-.07,.09,.02,.22,.13,.19l1.65-.5c.06-.02,.12,0,.14,.06l.75,1.52c.05,.1,.2,.08,.22-.03l.31-1.49s.03-.07,.07-.08l1.41-.63c.09-.04,.09-.18,0-.22l-1.45-.67s-.07-.06-.07-.11l.03-1.22c0-.11-.13-.16-.2-.09l-.91,.88s-.08,.04-.12,.03Z"/>
      <path class="cls-14" d="M76.79,43.68c-1.48-3.49-3.59-6.62-6.28-9.31-2.69-2.69-5.82-4.8-9.31-6.28-3.61-1.53-7.45-2.3-11.4-2.3s-7.79,.77-11.4,2.3c-3.49,1.48-6.62,3.59-9.31,6.28-2.69,2.69-4.8,5.82-6.28,9.31-1.53,3.61-2.3,7.45-2.3,11.4s.77,7.79,2.3,11.4c1.48,3.49,3.59,6.62,6.28,9.31,2.69,2.69,5.82,4.8,9.31,6.28,3.61,1.53,7.45,2.3,11.4,2.3s7.79-.77,11.4-2.3c3.49-1.48,6.62-3.59,9.31-6.28,2.69-2.69,4.8-5.82,6.28-9.31,1.53-3.61,2.3-7.45,2.3-11.4s-.77-7.79-2.3-11.4Zm-27,39.64c-2.02,0-3.99-.21-5.89-.62-.55-3.4-1.24-6.78-1.91-10.08-.95-4.68-1.94-9.51-2.53-14.35,1.39-4.75,3.27-10.3,6.72-15.52,.27-.41,.56-.69,.87-.86,.11-.06,.25-.06,.37-.01,.12,.05,.21,.15,.25,.27,.06,.21,.08,.51,.05,.85-.28,3.19-3.03,9.92-3.23,10.25-.01,.02-.02,.04-.03,.07-.12,.43-.25,.85-.39,1.26-.4,1.23-.78,2.39-.53,3.6,0,0,0,.01,0,.02,.2,.64,.39,1.33,.58,1.99,.56,1.97,1.14,4.01,1.99,5.58,.04,2.01,.16,4,.46,6.02,.06,1.55,.11,3.16-.28,4.51-.04,.12,.04,.25,.16,.29,.12,.04,.26-.03,.29-.16,.42-1.43,.36-3.08,.3-4.67,0,0,0-.02,0-.03-.3-2.01-.42-4-.46-6,0-.01,0-.03,0-.04-.03-1.8,0-3.62,.04-5.48,.02-1.11,.05-2.26,.05-3.41,.16-1.35,.33-2.74,1.04-3.72,.17-.23,.47-.34,.76-.27,.03,.02,.22,.19,.58,1.23,.23,.66,.45,1.44,.59,1.96,.07,.26,.13,.46,.16,.57,.44,1.35,.85,2.81,1.26,4.49,.25,1.04,.42,2.13,.58,3.18,.22,1.47,.46,2.99,.93,4.44,.42,1.28,1.1,2.45,1.77,3.58,.63,1.08,1.28,2.19,1.69,3.38,.67,1.95,1.19,4.27,1.38,6.64-2.43,.68-4.99,1.05-7.63,1.05Zm8.09-1.18c-.2-2.39-.73-4.71-1.4-6.66-.42-1.24-1.09-2.37-1.73-3.46-.65-1.11-1.32-2.25-1.72-3.49-.46-1.41-.69-2.91-.91-4.36-.16-1.06-.33-2.16-.58-3.21-.41-1.68-.82-3.16-1.27-4.52-.03-.1-.09-.3-.16-.55-.7-2.52-1.08-3.4-1.49-3.51-.48-.13-.99,.05-1.27,.44-.78,1.08-.96,2.54-1.13,3.95,0,0,0,.02,0,.03,0,1.15-.03,2.3-.05,3.42-.03,1.52-.06,3.01-.05,4.48-.61-1.38-1.08-3.02-1.53-4.61-.19-.66-.38-1.35-.58-1.99-.22-1.09,.14-2.19,.52-3.35,.13-.41,.27-.83,.39-1.26,.34-.65,3-7.18,3.28-10.42,.04-.41,.01-.76-.07-1.03-.08-.26-.27-.47-.52-.57-.25-.1-.53-.09-.77,.03-.38,.2-.73,.54-1.04,1.01-3.5,5.29-5.4,10.91-6.8,15.7,0,.03-.01,.06,0,.09,.59,4.87,1.58,9.73,2.54,14.43,.66,3.23,1.33,6.54,1.88,9.88-12.51-2.9-21.86-14.14-21.86-27.51,0-15.57,12.67-28.24,28.24-28.24s28.24,12.67,28.24,28.24c0,12.76-8.51,23.57-20.15,27.06Z"/>
      <g>
        <path class="cls-11" d="M16.71,58.79s-.11-.06-.17-.05c-.07,0-.12,.04-.16,.09-.04,.05-.05,.13-.04,.25l.09,.85-5.29,.55,5.4-4-.06-.59-5.97,.62-.04-.39c-.01-.11-.04-.19-.09-.23-.05-.04-.11-.06-.18-.05-.07,0-.12,.04-.16,.09-.04,.05-.05,.13-.04,.24l.18,1.7c.01,.11,.04,.19,.09,.23,.05,.04,.1,.06,.17,.05,.07,0,.12-.04,.16-.09s.05-.13,.04-.24l-.09-.85,5.3-.55-5.41,4,.13,1.21c.01,.11,.04,.19,.09,.23,.05,.04,.11,.06,.17,.05,.07,0,.12-.04,.16-.09,.04-.05,.05-.13,.04-.24l-.06-.62,5.51-.57,.04,.38c.01,.11,.04,.19,.09,.24,.05,.04,.11,.06,.17,.05,.07,0,.12-.04,.16-.09,.04-.05,.05-.13,.04-.25l-.18-1.7c-.01-.11-.04-.19-.09-.23Z"/>
        <path class="cls-22" d="M16.83,49.72c0-.11,0-.2-.05-.25-.04-.05-.09-.08-.16-.08-.07,0-.13,.01-.17,.06-.05,.04-.07,.12-.08,.24l-.05,.62-3.06-.24c-.36-.03-.7,.11-1.02,.41-.31,.3-.49,.75-.54,1.33-.02,.29,.02,.73,.13,1.32,.07,.37,.13,.58,.18,.64,.03,.04,.08,.06,.14,.07,.07,0,.12-.01,.17-.05,.05-.04,.07-.09,.08-.15,0-.03,0-.11-.04-.23-.16-.67-.22-1.18-.19-1.54,.04-.47,.16-.81,.37-1.03,.21-.22,.44-.32,.69-.3l.75,.06c-.08,.29-.15,.55-.19,.8-.05,.25-.08,.48-.1,.69-.06,.79,.06,1.4,.36,1.84,.3,.44,.68,.67,1.12,.71,.41,.03,.76-.1,1.07-.39,.31-.29,.48-.71,.52-1.27,.06-.76-.16-1.5-.68-2.22l.67,.05,.09-1.08Zm-.69,2.1c.13,.36,.18,.73,.15,1.13-.03,.42-.15,.73-.36,.93-.21,.2-.45,.29-.73,.27-.3-.02-.55-.19-.74-.49-.26-.4-.36-.94-.31-1.61,.02-.27,.06-.52,.1-.76,.05-.24,.11-.47,.19-.68l1.02,.08c.32,.39,.55,.76,.68,1.12Z"/>
        <rect class="cls-41" x="10.94" y="44.03" width=".68" height="1.2" transform="translate(-34.75 44.03) rotate(-75.07)"/>
        <path class="cls-19" d="M18.04,43.85c-.07-.02-.13,0-.18,.03-.05,.04-.09,.11-.12,.22l-.47,1.76-4.17-1.11-.47,1.76c-.03,.11-.03,.19,0,.25,.03,.06,.08,.1,.15,.11,.06,.02,.12,0,.18-.03,.06-.04,.1-.11,.13-.21l.35-1.31,3.72,.99-.47,1.76c-.03,.11-.03,.19,0,.25,.03,.06,.08,.09,.14,.11,.06,.02,.12,0,.18-.03,.06-.03,.1-.11,.13-.21l1.06-3.97c.03-.11,.03-.19,0-.25-.03-.06-.08-.09-.14-.11Z"/>
        <path class="cls-7" d="M20.34,38.32c-.06,.03-.11,.09-.16,.19l-.78,1.65-5.85-2.76-.77,1.63c-.05,.1-.06,.19-.04,.25,.02,.06,.06,.11,.12,.14,.06,.03,.13,.03,.19,0s.12-.09,.16-.19l.57-1.21,5.43,2.56-.78,1.65c-.05,.1-.06,.18-.04,.24,.02,.06,.06,.11,.12,.14,.06,.03,.12,.03,.18,0,.06-.02,.11-.09,.16-.19l1.75-3.72c.05-.1,.06-.19,.04-.25s-.06-.11-.12-.14c-.06-.03-.12-.03-.18,0Z"/>
        <path class="cls-25" d="M22.99,32.78c-.22-.15-.47-.23-.75-.22-.29,0-.59,.12-.9,.34-.22,.15-.54,.47-.97,.95-.33,.37-.59,.6-.78,.68-.27,.12-.49,.12-.67,0-.16-.11-.24-.3-.24-.57,0-.36,.15-.75,.45-1.17,.29-.4,.61-.67,.95-.8,.24-.08,.45-.07,.64,.04,.08,.05,.15,.07,.2,.05,.06-.01,.1-.04,.14-.09,.04-.06,.05-.12,.04-.18-.01-.06-.06-.13-.15-.19l-.65-.46c-.09-.07-.17-.1-.24-.09-.06,0-.12,.04-.16,.1-.04,.05-.05,.11-.04,.18,.01,.06,.06,.13,.15,.19-.49,.14-.92,.48-1.29,1-.32,.44-.49,.89-.53,1.34-.04,.45,.11,.8,.43,1.03,.18,.13,.39,.19,.63,.19,.24,0,.47-.08,.69-.23,.22-.15,.53-.44,.91-.87,.38-.43,.73-.72,1.05-.87,.31-.14,.59-.13,.82,.04,.2,.15,.31,.4,.32,.77,.01,.37-.16,.8-.51,1.29-.24,.33-.49,.58-.74,.74s-.5,.24-.72,.25c-.14,0-.28-.05-.42-.14-.06-.04-.13-.06-.19-.05-.06,.01-.12,.04-.15,.1-.04,.06-.05,.12-.04,.18,.01,.06,.07,.13,.16,.19l.78,.56c.09,.06,.17,.09,.23,.08,.06,0,.12-.04,.15-.09,.03-.04,.04-.08,.04-.13,0-.05,0-.09-.03-.12-.02-.03-.08-.09-.18-.16,.57-.16,1.08-.54,1.5-1.14,.43-.6,.63-1.14,.6-1.62-.03-.49-.2-.85-.52-1.08Z"/>
        <path class="cls-35" d="M32.95,25.53c-.06,0-.14,.02-.23,.08l-.33,.22-.52-.22c0-.41-.1-.93-.3-1.54,.12-.08,.19-.14,.21-.17,.02-.03,.03-.07,.03-.12,0-.05-.01-.09-.04-.13-.04-.06-.09-.09-.15-.1-.06-.01-.14,.02-.23,.08l-.38,.25c.2,.53,.32,1.04,.37,1.52l-2.2-.99c-.57-.26-.92-.48-1.05-.68-.13-.19-.17-.42-.11-.68,.05-.26,.19-.46,.4-.6,.1-.07,.22-.12,.35-.14,.13-.03,.27-.03,.42,0l.19-.36c.04-.08,.06-.14,.06-.18s-.01-.09-.04-.12c-.04-.06-.09-.09-.15-.1-.06-.01-.12,0-.17,.03-.03,.02-.09,.11-.18,.26-.15,0-.28,.03-.41,.07-.12,.04-.24,.09-.34,.16-.32,.21-.52,.51-.6,.89-.08,.38-.02,.72,.19,1.03,.08,.12,.18,.23,.3,.31,.12,.09,.42,.24,.89,.45-.27,.32-.41,.67-.43,1.04-.02,.38,.08,.73,.29,1.05,.28,.42,.66,.68,1.13,.79,.47,.11,.89,.04,1.26-.21,.44-.29,.66-.73,.66-1.32l.6,.26,.52-.35c.09-.06,.15-.12,.16-.19,.02-.06,0-.12-.03-.18-.04-.06-.09-.09-.15-.1Zm-2.03,1.49c-.25,.17-.56,.21-.9,.13-.35-.08-.63-.28-.83-.59-.17-.26-.25-.54-.22-.83,.03-.29,.15-.55,.36-.78l2.06,.92c.03,.53-.12,.92-.47,1.14Z"/>
        <path class="cls-4" d="M43.84,19.3c-.22-.21-.5-.35-.84-.42-.26-.05-.7-.06-1.34-.01-.38,.02-.66,.03-.85,.01-.19-.02-.36-.05-.51-.11-.16-.06-.29-.15-.41-.28-.12-.13-.2-.28-.24-.46-.08-.35,0-.68,.23-1.01,.23-.32,.6-.54,1.1-.66,.47-.11,.88-.08,1.23,.1,.35,.17,.57,.41,.65,.71,.03,.1,.06,.16,.12,.19,.05,.03,.11,.04,.17,.03,.07-.02,.12-.05,.15-.11,.03-.06,.03-.14,0-.25l-.27-1.15c-.02-.11-.06-.18-.11-.22-.05-.04-.11-.05-.18-.03-.07,.02-.12,.05-.15,.11-.03,.06-.03,.14,0,.25l.03,.15c-.55-.29-1.14-.37-1.77-.22-.62,.14-1.08,.43-1.38,.86-.3,.43-.4,.88-.29,1.35,.11,.48,.36,.81,.75,.99,.39,.18,.97,.25,1.75,.2,.57-.03,.95-.03,1.13,0,.27,.05,.49,.15,.66,.31,.17,.16,.28,.35,.33,.59,.09,.39,0,.76-.26,1.12-.26,.36-.68,.6-1.25,.73-.57,.13-1.05,.1-1.45-.09-.4-.19-.64-.45-.74-.78-.03-.1-.06-.16-.12-.19-.05-.03-.11-.04-.17-.03-.07,.02-.12,.05-.15,.11-.03,.06-.03,.14,0,.25l.29,1.25c.02,.11,.06,.18,.12,.22,.05,.04,.11,.05,.18,.03,.07-.02,.12-.05,.15-.11,.03-.06,.03-.14,0-.25l-.06-.26c.58,.38,1.27,.48,2.05,.3,.7-.16,1.21-.47,1.54-.93,.33-.46,.43-.95,.31-1.46-.08-.34-.23-.61-.44-.82Z"/>
        <path class="cls-48" d="M49.64,16.84c-.4-.2-.82-.28-1.28-.26-.43,.02-.8,.12-1.11,.3-.31,.18-.59,.45-.86,.8l-.04-.84-1.09,.05c-.11,0-.19,.03-.23,.08-.05,.05-.07,.1-.06,.17,0,.07,.03,.13,.08,.17,.05,.04,.13,.06,.24,.06l.62-.03,.27,5.98-.62,.03c-.11,0-.19,.03-.23,.07-.05,.04-.07,.1-.06,.17,0,.07,.03,.13,.08,.16,.05,.04,.13,.06,.24,.05l2.21-.1c.11,0,.19-.03,.23-.08,.05-.05,.07-.1,.06-.17,0-.07-.03-.13-.08-.17-.05-.04-.13-.06-.24-.05l-1.13,.05-.12-2.79c.54,.65,1.23,.96,2.06,.92,.7-.03,1.27-.29,1.73-.79,.46-.49,.67-1.07,.64-1.74-.02-.42-.14-.81-.37-1.19-.23-.37-.54-.66-.94-.85Zm.31,3.46c-.37,.4-.84,.61-1.39,.63-.56,.03-1.05-.14-1.45-.51-.41-.37-.62-.81-.65-1.35-.02-.53,.15-.99,.52-1.39,.37-.4,.84-.61,1.4-.64,.56-.02,1.04,.14,1.45,.51,.4,.36,.62,.81,.64,1.35,.02,.54-.15,1-.52,1.4Z"/>
        <path class="cls-29" d="M56.78,21.68l-.61-.08,.42-3.04c.05-.36-.07-.71-.35-1.04-.28-.33-.72-.54-1.3-.62-.29-.04-.73-.02-1.32,.05-.37,.04-.59,.09-.65,.14-.04,.03-.07,.08-.08,.14,0,.07,0,.12,.04,.17,.04,.05,.08,.08,.14,.09,.03,0,.11,0,.23-.02,.67-.12,1.19-.15,1.55-.1,.47,.06,.8,.21,1.01,.42,.21,.22,.29,.45,.26,.7l-.1,.74c-.28-.1-.54-.18-.79-.24-.24-.06-.47-.11-.68-.14-.78-.11-1.4-.03-1.86,.25-.45,.28-.71,.64-.77,1.08-.06,.4,.05,.77,.32,1.09,.27,.32,.68,.52,1.23,.6,.76,.11,1.51-.08,2.26-.55l-.09,.66,1.08,.15c.11,.02,.2,0,.25-.03,.05-.04,.08-.09,.09-.15,0-.07,0-.13-.05-.18-.04-.05-.12-.08-.23-.1Zm-.96-.96c-.41,.3-.8,.5-1.16,.61-.36,.11-.74,.14-1.14,.08-.42-.06-.72-.2-.91-.42-.19-.22-.27-.47-.23-.75,.04-.3,.22-.54,.53-.71,.42-.24,.96-.31,1.62-.22,.27,.04,.52,.09,.75,.15,.24,.06,.46,.14,.67,.23l-.14,1.01Z"/>
        <rect class="cls-50" x="66.88" y="20.38" width=".66" height="4.73" transform="translate(15.1 70.91) rotate(-61.44)"/>
        <path class="cls-49" d="M77.06,34.76l4.2-3.61,.19,.22c.07,.09,.14,.13,.21,.14,.06,0,.12,0,.17-.06,.05-.05,.08-.1,.08-.16,0-.06-.04-.14-.11-.23l-.74-.86-4.16,1.3,1.89-3.94-.74-.86c-.07-.08-.14-.13-.2-.14-.06,0-.12,.01-.17,.06-.05,.05-.08,.1-.08,.16,0,.06,.03,.14,.11,.22l.19,.22-4.2,3.61-.26-.3c-.07-.08-.14-.13-.2-.14-.06,0-.12,.01-.17,.06-.05,.04-.08,.1-.08,.16,0,.06,.03,.14,.1,.22l1.12,1.3c.07,.08,.14,.13,.2,.14,.06,0,.12-.01,.17-.05,.05-.05,.08-.1,.08-.16,0-.06-.03-.14-.11-.22l-.56-.65,4.2-3.61,.06,.07-1.91,4,.35,.4,4.22-1.32,.06,.08-4.2,3.61-.56-.65c-.07-.09-.14-.13-.21-.14-.06,0-.12,0-.17,.06-.05,.04-.08,.1-.08,.16,0,.07,.03,.14,.11,.23l1.11,1.29c.07,.09,.14,.13,.21,.14,.06,0,.12-.01,.17-.05,.05-.05,.08-.1,.08-.16,0-.06-.04-.14-.11-.23l-.25-.29Z"/>
        <path class="cls-15" d="M80.18,40.08c.01-.06,0-.14-.06-.24l-.2-.34,3.73-2.18-.67-1.14c-.06-.1-.11-.15-.18-.17-.06-.02-.12-.01-.18,.02-.06,.04-.1,.08-.11,.15s0,.14,.06,.24l.43,.74-2.59,1.51c-.92-.2-1.56-.62-1.94-1.27-.14-.25-.18-.5-.11-.77,.07-.26,.24-.47,.5-.62l2.99-1.74-.55-.94c-.06-.09-.11-.15-.18-.17-.06-.02-.12-.01-.18,.02-.06,.04-.1,.09-.11,.15-.01,.06,0,.14,.06,.24l.31,.54-2.59,1.51c-.37,.22-.62,.54-.75,.97-.09,.33-.03,.69,.2,1.08,.37,.64,.96,1.08,1.78,1.34l-.59,.34,.43,.74c.06,.1,.11,.15,.18,.17,.06,.02,.12,.01,.18-.02,.06-.04,.1-.08,.11-.15Z"/>
        <path class="cls-21" d="M84.74,40.98l-3.64,1.32-.38-1.05c-.04-.11-.09-.18-.14-.2-.06-.03-.11-.03-.17-.01-.06,.02-.11,.06-.13,.12-.02,.06-.02,.14,.02,.25l1.24,3.42c.04,.11,.09,.18,.15,.21,.06,.03,.12,.03,.18,.01,.07-.02,.11-.07,.13-.12s.02-.14-.02-.25l-.7-1.93,2.39-.87c.83,.45,1.37,.78,1.62,.99,.25,.21,.41,.41,.48,.61,.03,.09,.04,.18,.03,.29s-.06,.24-.13,.41c-.04,.09-.06,.15-.07,.18,0,.03,0,.06,.01,.1,.02,.07,.06,.11,.12,.14,.06,.03,.12,.03,.19,0,.09-.03,.18-.19,.28-.48,.09-.29,.09-.56,0-.82-.09-.24-.25-.47-.5-.7s-.73-.53-1.45-.92l1.1-.4-.45-1.24c-.04-.11-.09-.18-.14-.2-.06-.03-.12-.03-.18,0-.07,.02-.11,.07-.14,.13-.03,.06-.02,.14,.02,.25l.29,.8Z"/>
        <path class="cls-18" d="M80.47,49.19c.05,.04,.11,.05,.18,.04,.07-.01,.12-.04,.15-.1s.04-.14,.02-.24l-.19-1.11,2.76-.47c-.58,.62-.8,1.34-.66,2.16,.12,.69,.45,1.22,.99,1.62,.55,.39,1.15,.53,1.81,.42,.41-.07,.79-.24,1.13-.51,.34-.27,.58-.62,.73-1.03,.15-.42,.18-.85,.1-1.3-.07-.42-.22-.78-.44-1.06-.22-.28-.52-.53-.89-.75l.83-.14-.18-1.07c-.02-.11-.05-.18-.11-.22-.05-.04-.11-.05-.18-.04-.07,.01-.12,.04-.16,.1-.04,.05-.04,.14-.03,.25l.1,.61-5.9,1-.1-.62c-.02-.11-.05-.18-.1-.22-.05-.04-.11-.05-.18-.04-.07,.01-.12,.04-.15,.1-.03,.05-.04,.14-.02,.24l.37,2.18c.02,.11,.05,.18,.11,.22Zm4.31-2.12c.52-.09,1.01,.03,1.45,.35,.44,.32,.71,.76,.81,1.31,.09,.55-.01,1.05-.33,1.5-.31,.45-.73,.71-1.26,.8-.53,.09-1.02-.03-1.46-.35-.44-.32-.71-.76-.8-1.3-.09-.56,.01-1.06,.33-1.51,.31-.45,.73-.72,1.26-.81Z"/>
        <path class="cls-2" d="M90,52.69c0-.11-.02-.19-.06-.24-.04-.05-.1-.07-.16-.07-.07,0-.13,.02-.17,.07-.04,.05-.07,.13-.07,.24v.62s-6.01-.08-6.01-.08v-.52c0-.11-.01-.19-.05-.24-.04-.05-.1-.07-.17-.07-.07,0-.12,.02-.17,.07-.04,.05-.07,.13-.07,.24l-.02,1.51c0,.11,.02,.19,.06,.24,.04,.05,.1,.07,.16,.07,.07,0,.13-.02,.17-.07,.04-.05,.07-.13,.07-.24v-.52s2.95,.04,2.95,.04c.43,.4,.71,.69,.82,.87,.16,.24,.24,.53,.24,.87,0,.43-.12,.76-.35,1-.23,.24-.51,.35-.84,.35l-2.84-.04v-.52c0-.11-.01-.2-.05-.24-.04-.05-.1-.07-.17-.07-.07,0-.12,.02-.17,.07-.04,.05-.07,.13-.07,.24l-.02,1.51c0,.11,.02,.19,.06,.24,.04,.05,.1,.07,.16,.07,.07,0,.13-.02,.17-.07,.04-.05,.07-.13,.07-.24v-.52s2.88,.04,2.88,.04c.29,0,.57-.08,.84-.24,.27-.17,.46-.37,.59-.62,.13-.25,.2-.56,.2-.92,0-.34-.06-.64-.18-.91-.13-.27-.35-.56-.66-.86l2.86,.04v-1.09Z"/>
        <path class="cls-8" d="M87.36,59.55c-.06-.01-.12,0-.18,.04-.05,.04-.09,.11-.11,.22l-.03,.14-4.65,1.27-1.48-1.13,.28-1.42c.02-.11,.02-.19-.02-.25-.03-.06-.08-.09-.15-.1-.07-.01-.13,0-.18,.04-.05,.04-.09,.11-.11,.22l-.52,2.62c-.02,.11-.02,.19,.02,.25,.03,.06,.08,.09,.15,.1,.07,.01,.13,0,.18-.04,.05-.04,.09-.11,.11-.22l.14-.71,5.3,4.05c-.03,.17-.05,.27-.04,.31,0,.04,.03,.08,.06,.11,.03,.04,.07,.06,.12,.07,.07,.01,.13,0,.18-.04,.05-.04,.09-.11,.11-.23l.25-1.24c.02-.11,.02-.19-.02-.25-.03-.06-.08-.09-.15-.1-.07-.01-.13,0-.18,.04-.05,.04-.09,.11-.11,.22l-.12,.61-3.37-2.57,4.1-1.12-.12,.61c-.02,.11-.02,.19,.02,.25,.03,.06,.08,.09,.15,.1,.07,.01,.13,0,.18-.04,.05-.04,.09-.11,.11-.22l.25-1.25c.02-.08,.02-.14,.01-.18,0-.04-.03-.08-.06-.11-.03-.03-.07-.05-.12-.06Z"/>
      </g>
    </g>
  </g>
</svg>